# xmcd CD database file
#
# Track frame offsets:
#	150
#	19578
#	41438
#	59282
#	80320
#	100838
#	123058
#	144678
#	163225
#	185143
#	207903
#	231450
#	252058
#	280965
#	332550
#
# Disc length: 4440 seconds
#
# Revision: 58
# Processed by: cddbd v1.5.2PL0 Copyright (c) Steve Scherf et al.
# Submitted via: CDex 1.70beta3
#
DISCID=d111560f
DTITLE=ポルノグラフィティ - PORNO GRAFFITTI BEST BLUE'S
DYEAR=2004
DGENRE=J-Rock
TTITLE0=アポロ
TTITLE1=サボテン
TTITLE2=オレ、天使
TTITLE3=アゲハ蝶
TTITLE4=ラビュー・ラビュー
TTITLE5=音のない森
TTITLE6=渦
TTITLE7=ヒトリノ夜
TTITLE8=ハート
TTITLE9=パレット
TTITLE10=カルマの坂
TTITLE11=メリッサ
TTITLE12=まほろば○△
TTITLE13=NO MUSIC(FUCK CCCD)
TTITLE14=NO MUSIC(FUCK CCCD)
EXTD=YEAR: 2004
EXTT0=
EXTT1=
EXTT2=
EXTT3=
EXTT4=
EXTT5=
EXTT6=
EXTT7=
EXTT8=
EXTT9=
EXTT10=
EXTT11=
EXTT12=
EXTT13=
EXTT14=
PLAYORDER=
